<svg id="svg" version="1.1" xmlns="http://www.w3.org/2000/svg" style="display: block;" viewBox="0 0 128 128"><path d="M0 0 C42.24 0 84.48 0 128 0 C128 42.24 128 84.48 128 128 C85.76 128 43.52 128 0 128 C0 85.76 0 43.52 0 0 Z " transform="translate(0,0)" style="fill: #2F3133;"/><path d="M0 0 C42.24 0 84.48 0 128 0 C128 42.24 128 84.48 128 128 C85.76 128 43.52 128 0 128 C0 85.76 0 43.52 0 0 Z M8 14 C7.10211976 16.69364071 6.87119859 18.2466818 6.85955811 21.00961304 C6.85384796 21.82268417 6.84813782 22.63575531 6.84225464 23.47346497 C6.84113678 24.36184555 6.84001892 25.25022614 6.83886719 26.16552734 C6.83390228 27.1040303 6.82893738 28.04253326 6.82382202 29.00947571 C6.8092009 32.11830373 6.80239877 35.22708073 6.796875 38.3359375 C6.79112389 40.49443565 6.78536615 42.65293377 6.77960205 44.81143188 C6.76909247 49.3391341 6.76324939 53.86681855 6.75976562 58.39453125 C6.75427839 64.19748714 6.73024515 70.00020869 6.70179367 75.80309105 C6.68317548 80.26232592 6.67796214 84.72150423 6.67642975 89.18077469 C6.67340128 91.32020983 6.66536625 93.45964394 6.65224457 95.59904099 C6.63520004 98.59143699 6.63706044 101.58325881 6.64355469 104.57568359 C6.6343399 105.46001572 6.62512512 106.34434784 6.6156311 107.25547791 C6.65457333 112.98030195 7.60996437 116.14666153 11.34635735 120.60734558 C13.41718457 122.35134189 14.44303073 122.37678734 17.12350464 122.38095093 C17.96181824 122.3894104 18.80013184 122.39786987 19.66384888 122.40658569 C20.58028168 122.400513 21.49671448 122.39444031 22.44091797 122.38818359 C23.89256348 122.39606903 23.89256348 122.39606903 25.37353516 122.40411377 C28.57991572 122.41734165 31.78580167 122.40856429 34.9921875 122.3984375 C37.21794734 122.40045776 39.44370654 122.40336879 41.66946411 122.40713501 C46.33846324 122.41156242 51.00729037 122.40511501 55.67626953 122.39111328 C61.66086498 122.37404115 67.64505623 122.38384766 73.62963676 122.40183067 C78.227865 122.41267409 82.82599754 122.40921922 87.42422867 122.4014473 C89.63063734 122.39944581 91.83705469 122.40190274 94.04345322 122.40888596 C97.12930027 122.41650721 100.21449451 122.40488538 103.30029297 122.38818359 C104.21267731 122.39425629 105.12506165 122.40032898 106.06509399 122.40658569 C110.84870237 122.35863659 114.15322731 122.16930898 118 119 C120.05467252 115.91799122 120.25174806 115.2749288 120.26742554 111.7938385 C120.27595551 110.93725143 120.28448547 110.08066437 120.29327393 109.19812012 C120.29236755 108.26141479 120.29146118 107.32470947 120.29052734 106.35961914 C120.29724457 105.37074203 120.30396179 104.38186493 120.31088257 103.36302185 C120.32991455 100.08701585 120.33378927 96.81121412 120.3359375 93.53515625 C120.34236135 91.26216039 120.3490894 88.98916536 120.35610962 86.71617126 C120.36809509 81.94886355 120.37178909 77.18162837 120.37060547 72.41430664 C120.37040211 66.2995247 120.3977168 60.18520663 120.43214989 54.07053471 C120.4543639 49.37542068 120.45844471 44.68041931 120.45738602 39.9852581 C120.45974979 37.73055865 120.46861671 35.47585644 120.48405075 33.22120857 C120.50360097 30.07039818 120.49791572 26.92060138 120.48583984 23.76977539 C120.49707886 22.8350943 120.50831787 21.90041321 120.51989746 20.93740845 C120.50910828 15.84711037 120.50910828 15.84711037 118.15713501 11.45188904 C115.04830953 9.35945179 112.53374002 8.87408662 108.87649536 8.84609985 C107.61902496 8.83319916 107.61902496 8.83319916 106.33615112 8.82003784 C104.96150192 8.81364792 104.96150192 8.81364792 103.55908203 8.80712891 C102.59131836 8.79895142 101.62355469 8.79077393 100.62646484 8.78234863 C97.4202537 8.75751199 94.21408671 8.74098501 91.0078125 8.7265625 C89.36641611 8.71857698 89.36641611 8.71857698 87.6918602 8.71043015 C81.90249075 8.683709 76.11314281 8.66432878 70.32373047 8.64990234 C64.33902255 8.63323638 58.35486336 8.58843889 52.37036324 8.5375309 C47.77215934 8.50391275 43.17408674 8.49233099 38.57577133 8.48667526 C36.36932037 8.47995025 34.16287842 8.46469596 31.95654678 8.44078445 C28.87047469 8.40924077 25.78589734 8.40907995 22.69970703 8.41650391 C21.33113052 8.3918959 21.33113052 8.3918959 19.93490601 8.36679077 C14.24735866 8.42285046 11.56366988 9.1707028 8 14 Z " transform="translate(0,0)" style="fill: #2F3233;"/><path d="M0 0 C0.8383136 -0.00701431 1.6766272 -0.01402863 2.54034424 -0.02125549 C3.45677704 -0.01361176 4.37320984 -0.00596802 5.31741333 0.00190735 C6.76905884 -0.00356865 6.76905884 -0.00356865 8.25003052 -0.00915527 C11.45642524 -0.01727602 14.66231694 -0.00363581 17.86868286 0.01094055 C20.09444173 0.01145906 22.32020106 0.01094172 24.54595947 0.00942993 C29.214964 0.00951973 33.88379613 0.01996305 38.55276489 0.03804016 C44.53729448 0.06070114 50.52157147 0.06127692 56.50613213 0.05452251 C61.10435225 0.05118006 65.70251482 0.05781831 70.30072403 0.06765175 C72.50712915 0.07150124 74.71354067 0.072653 76.91994858 0.0710659 C80.0056857 0.07069491 83.09109975 0.08332633 86.17678833 0.0995636 C87.54536484 0.09584747 87.54536484 0.09584747 88.94158936 0.09205627 C97.05739383 0.16018673 97.05739383 0.16018673 100.87649536 2.3742218 C102.93005347 5.45455896 103.12822856 6.0953439 103.1439209 9.57365417 C103.15245087 10.42879608 103.16098083 11.28393799 103.16976929 12.16499329 C103.16886292 13.10012756 103.16795654 14.03526184 103.16702271 14.99873352 C103.17373993 15.98600433 103.18045715 16.97327515 103.18737793 17.99046326 C103.20641166 21.26166281 103.21028487 24.53265778 103.21243286 27.8039093 C103.21885712 30.07450953 103.2255852 32.34510893 103.23260498 34.6157074 C103.24459126 39.37881896 103.24828442 44.14185793 103.24710083 48.90498352 C103.24689758 55.01069939 103.27419999 61.11595011 103.30864525 67.22155571 C103.33087465 71.91242107 103.33493958 76.60317381 103.33388138 81.29408646 C103.3362433 83.54516834 103.3450999 85.79625305 103.36054611 88.04728317 C103.38012519 91.19549444 103.37439934 94.34269373 103.36233521 97.49092102 C103.37357422 98.42200684 103.38481323 99.35309265 103.39639282 100.31239319 C103.35568396 104.48947444 103.23097802 106.78654031 101.03363037 110.4294281 C98.04275664 113.12589001 95.6334043 113.4984274 91.75299072 113.52812195 C90.91467712 113.53672241 90.07636353 113.54532288 89.21264648 113.55418396 C88.29621368 113.55844391 87.37978088 113.56270386 86.43557739 113.5670929 C85.46781372 113.57527039 84.50005005 113.58344788 83.50296021 113.59187317 C80.29674906 113.61670981 77.09058207 113.63323679 73.88430786 113.6476593 C72.7900436 113.65298298 71.69577934 113.65830666 70.56835556 113.66379166 C64.77898611 113.6905128 58.98963817 113.70989302 53.20022583 113.72431946 C47.21551791 113.74098542 41.23135872 113.78578291 35.2468586 113.8366909 C30.6486547 113.87030905 26.0505821 113.88189081 21.45226669 113.88754654 C19.24581573 113.89427155 17.03937378 113.90952584 14.83304214 113.93343735 C11.74697005 113.96498103 8.6623927 113.96514185 5.57620239 113.9577179 C4.20762589 113.9823259 4.20762589 113.9823259 2.81140137 114.00743103 C-1.65426083 113.96341493 -3.52842349 113.83346953 -7.16723633 111.0252533 C-9.59780628 107.73147327 -10.24713924 105.35390842 -10.26394653 101.36460876 C-10.26965668 100.55153763 -10.27536682 99.73846649 -10.28125 98.90075684 C-10.28236786 98.01237625 -10.28348572 97.12399567 -10.28463745 96.20869446 C-10.28960236 95.2701915 -10.29456726 94.33168854 -10.29968262 93.36474609 C-10.31430374 90.25591808 -10.32110587 87.14714107 -10.32662964 84.0382843 C-10.33238075 81.87978616 -10.33813849 79.72128803 -10.34390259 77.56278992 C-10.35441217 73.0350877 -10.36025525 68.50740325 -10.36373901 63.97969055 C-10.36922625 58.17673466 -10.39325949 52.37401311 -10.42171097 46.57113075 C-10.44032916 42.11189588 -10.4455425 37.65271757 -10.44707489 33.19344711 C-10.45010336 31.05401197 -10.45813839 28.91457786 -10.47126007 26.77518082 C-10.48830459 23.78278481 -10.4864442 20.79096299 -10.47994995 17.79853821 C-10.48916473 16.91420609 -10.49837952 16.02987396 -10.50787354 15.1187439 C-10.46892916 9.39360383 -9.51305383 6.22772598 -5.77714729 1.76645565 C-3.70521397 0.02205477 -2.68144747 -0.0006177 0 0 Z M-1.12350464 10.3742218 C-1.21875943 13.29620283 -1.24901894 16.19439288 -1.23703003 19.11665344 C-1.23715056 20.04851943 -1.2372711 20.98038542 -1.23739529 21.94048977 C-1.23664594 24.97180973 -1.22901673 28.00306902 -1.22116089 31.03437805 C-1.21969154 32.89989696 -1.21867079 34.76541627 -1.21810913 36.63093567 C-1.21285546 43.56620398 -1.19889439 50.50146348 -1.18600464 57.4367218 C-1.16537964 72.9260968 -1.14475464 88.4154718 -1.12350464 104.3742218 C30.22649536 104.3742218 61.57649536 104.3742218 93.87649536 104.3742218 C93.87649536 73.0242218 93.87649536 41.6742218 93.87649536 9.3742218 C78.38712036 9.3535968 62.89774536 9.3329718 46.93899536 9.3117218 C39.59145996 9.2980658 39.59145996 9.2980658 32.0954895 9.28413391 C27.7206043 9.28079034 27.7206043 9.28079034 23.34571838 9.27877808 C21.39076002 9.27723828 19.43580263 9.27371263 17.48085022 9.26864624 C14.52685892 9.26137072 11.57292586 9.26031432 8.618927 9.26069641 C7.74189904 9.2570983 6.86487108 9.25350019 5.96126652 9.24979305 C2.10891927 8.87554471 2.10891927 8.87554471 -1.12350464 10.3742218 Z " transform="translate(17.123504638671875,8.625778198242188)" style="fill: #00B5FD;"/><path d="M0 0 C2 2 2 2 2 5.375 C1.24699973 10.30936644 -1.01998492 14.29739999 -3.328125 18.671875 C-5.07483717 22.14897492 -6.53514423 25.68821767 -7.9375 29.3125 C-8.95002998 31.8783544 -9.97175408 34.44040437 -11 37 C-11.2798877 37.69754395 -11.55977539 38.39508789 -11.84814453 39.11376953 C-12.70595221 41.21302753 -13.59771933 43.29452639 -14.5 45.375 C-14.76031006 46.02380127 -15.02062012 46.67260254 -15.28881836 47.34106445 C-16.09375 49.1484375 -16.09375 49.1484375 -18 52 C-21.21451023 53.01468126 -22.94615606 53.52692197 -26 52 C-26.35271725 45.78940996 -25.47950692 41.70022662 -22.8125 36.125 C-22.49224854 35.4244751 -22.17199707 34.7239502 -21.84204102 34.00219727 C-19.76294387 29.49045754 -17.53542654 25.06088267 -15.25390625 20.6484375 C-13.31681602 16.55701329 -11.71649865 12.3307048 -10.14233398 8.08764648 C-7.98195965 2.43396387 -6.4673192 -0.82914349 0 0 Z " transform="translate(76,39)" style="fill: #01B3F9;"/><path d="M0 0 C2.6015625 0.60546875 2.6015625 0.60546875 4.6015625 2.60546875 C4.51844051 6.56207548 3.85072935 8.30306112 1.31640625 11.37890625 C0.39988281 12.23742188 -0.51664063 13.0959375 -1.4609375 13.98046875 C-2.38003906 14.85445312 -3.29914062 15.7284375 -4.24609375 16.62890625 C-4.95636719 17.28117187 -5.66664062 17.9334375 -6.3984375 18.60546875 C-4.96842944 22.03449331 -3.25391318 23.72446578 -0.3359375 25.98046875 C2.51778735 28.38878464 3.49535377 29.29274304 4.7265625 32.91796875 C4.6015625 35.60546875 4.6015625 35.60546875 2.6015625 37.60546875 C-0 38.2109375 -0 38.2109375 -3.3984375 37.60546875 C-6.52106858 35.36285188 -9.11284577 32.68200121 -11.7734375 29.91796875 C-12.50949219 29.19673828 -13.24554688 28.47550781 -14.00390625 27.73242188 C-19.27062868 22.38264353 -19.27062868 22.38264353 -19.80957031 19.10546875 C-19.02573478 14.33915291 -15.10382779 11.55628463 -11.7734375 8.29296875 C-11.06058594 7.55240234 -10.34773438 6.81183594 -9.61328125 6.04882812 C-4.30755242 0.7674375 -4.30755242 0.7674375 0 0 Z " transform="translate(45.3984375,46.39453125)" style="fill: #01B2F8;"/><path d="M0 0 C3.26919708 0.41454234 4.29150366 1.3562591 6.61254883 3.65698242 C7.31831055 4.35629883 8.02407227 5.05561523 8.7512207 5.77612305 C9.47245117 6.51668945 10.19368164 7.25725586 10.93676758 8.02026367 C11.67733398 8.74149414 12.41790039 9.46272461 13.1809082 10.20581055 C13.88022461 10.91157227 14.57954102 11.61733398 15.30004883 12.34448242 C15.9385376 12.98861084 16.57702637 13.63273926 17.23486328 14.29638672 C19.01370058 16.90353518 19.13668431 18.2334445 18.62426758 21.33276367 C16.50420353 24.47593008 13.70225278 26.99671688 10.99926758 29.64526367 C10.28641602 30.38583008 9.57356445 31.12639648 8.83911133 31.8894043 C3.48914925 37.21482526 3.48914925 37.21482526 -0.89916992 37.81323242 C-2.12506836 37.57540039 -2.12506836 37.57540039 -3.37573242 37.33276367 C-4.21557617 34.20385742 -4.21557617 34.20385742 -4.37573242 30.33276367 C-2.58688824 27.93855767 -1.13512799 26.315887 1.06176758 24.39526367 C1.59092773 23.90219727 2.12008789 23.40913086 2.6652832 22.90112305 C3.9675814 21.69268418 5.29372271 20.51002977 6.62426758 19.33276367 C3.78591915 15.94820386 1.01748593 12.69178912 -2.25073242 9.70776367 C-4.37573242 7.33276367 -4.37573242 7.33276367 -4.81323242 4.64526367 C-4.20022462 1.4050796 -3.27331868 0.45848663 0 0 Z " transform="translate(82.375732421875,46.667236328125)" style="fill: #00B6FD;"/></svg>